HIERARCHY
ROOT hip
{
	OFFSET 0.000000 0.000000 0.000000 
	CHANNELS 6 Xposition Yposition Zposition Xrotation Zrotation Yrotation
	JOINT abdomen
	{
		OFFSET 0.000000 3.402643 0.000000 
		CHANNELS 3 Xrotation Zrotation Yrotation
		JOINT chest
		{
			OFFSET 0.000000 8.438565 -0.680529 
			CHANNELS 3 Xrotation Zrotation Yrotation
			JOINT neck
			{
				OFFSET 0.000000 10.207942 -0.272212 
				CHANNELS 3 Xrotation Zrotation Yrotation
				JOINT head
				{
					OFFSET 0.000000 3.130431 0.000000 
					CHANNELS 3 Xrotation Zrotation Yrotation
					End Site
					{
						OFFSET 0.000000 3.130435 0.000000 
					}
				}
			}
			JOINT lCollar
			{
				OFFSET 3.470700 6.669187 -0.816635 
				CHANNELS 3 Yrotation Zrotation Xrotation
				JOINT lShldr
				{
					OFFSET 3.198488 0.000000 0.000000 
					CHANNELS 3 Zrotation Yrotation Xrotation
					JOINT lForeArm
					{
						OFFSET 10.139888 0.000000 0.000000 
						CHANNELS 3 Yrotation Zrotation Xrotation
						JOINT lHand
						{
							OFFSET 8.370511 0.000000 0.000000 
							CHANNELS 3 Zrotation Yrotation Xrotation
							End Site
							{
								OFFSET 4.083176 0.000000 0.000000 
							}
						}
					}
				}
			}
			JOINT rCollar
			{
				OFFSET -3.470700 6.669187 -0.816635 
				CHANNELS 3 Yrotation Zrotation Xrotation
				JOINT rShldr
				{
					OFFSET -3.198488 0.000000 0.000000 
					CHANNELS 3 Zrotation Yrotation Xrotation
					JOINT rForeArm
					{
						OFFSET -10.139888 0.000000 0.000000 
						CHANNELS 3 Yrotation Zrotation Xrotation
						JOINT rHand
						{
							OFFSET -8.370511 0.000000 0.000000 
							CHANNELS 3 Zrotation Yrotation Xrotation
							End Site
							{
								OFFSET -4.083176 0.000000 0.000000 
							}
						}
					}
				}
			}
		}
	}
	JOINT lThigh
	{
		OFFSET 5.308129 -1.633274 1.361059 
		CHANNELS 3 Xrotation Zrotation Yrotation
		JOINT lShin
		{
			OFFSET -2.041588 -20.007561 0.000000 
			CHANNELS 3 Xrotation Zrotation Yrotation
			JOINT lFoot
			{
				OFFSET 0.000000 -19.190928 -1.224953 
				CHANNELS 3 Xrotation Yrotation Zrotation
				End Site
				{
					OFFSET 0.000000 -2.449906 4.627600 
				}
			}
		}
	}
	JOINT rThigh
	{
		OFFSET -5.308129 -1.633274 1.361059 
		CHANNELS 3 Xrotation Zrotation Yrotation
		JOINT rShin
		{
			OFFSET 2.041588 -20.007561 0.000000 
			CHANNELS 3 Xrotation Zrotation Yrotation
			JOINT rFoot
			{
				OFFSET 0.000000 -19.190928 -1.224953 
				CHANNELS 3 Xrotation Yrotation Zrotation
				End Site
				{
					OFFSET 0.000000 -2.449906 4.627600 
				}
			}
		}
	}
}
MOTION
Frames: 6
Frame Time: 0.011111
-10.086870 49.476048 -50.486073 -15.085939 0.169109 103.894218 30.341486 -7.642977 -3.212511 -21.745661 0.200611 0.094186 -4.538043 -20.278461 -20.461899 9.073775 46.580421 -42.317947 -0.892466 -0.957000 1.218467 -23.787533 -24.465361 -0.312601 -52.509972 8.233968 9.175208 8.524705 12.647240 -40.140026 -4.058817 0.661413 2.306497 11.057231 60.524670 -94.371437 35.381020 -2.959487 2.850323 -8.534408 -12.637552 38.851421 -34.196861 20.066763 6.072452 77.286858 -0.584471 -9.326164 -23.452541 1.006037 -2.012076 -7.117848 2.519427 7.483738 32.509010 5.178491 5.173436 -23.971977 -6.090179 -0.103741 
-9.463814 49.488750 -51.059219 -15.479613 -0.311976 102.955910 29.944550 -6.966725 -3.019902 -21.814125 0.276430 0.041457 -4.119115 -20.533688 -20.513477 8.593055 46.777256 -42.500530 -0.892466 -0.957000 1.218467 -24.176088 -24.104431 0.210959 -52.436527 8.221351 9.152705 8.524705 12.647240 -39.280655 -4.058817 0.661413 2.306497 10.750524 60.039803 -94.361748 35.271683 -2.918393 2.817076 -8.534408 -12.637552 38.382668 -36.096424 20.561777 4.783185 76.033356 -0.768771 -9.237143 -24.395559 0.377425 -2.178499 -6.409849 2.524527 8.128517 31.810192 5.232203 5.077605 -24.304243 -5.909174 -0.108972 
-8.829867 49.494499 -51.617558 -15.896345 -0.924450 102.084259 29.454271 -6.318416 -2.767210 -21.814114 0.265278 0.012658 -4.200405 -20.650599 -20.650448 8.713757 46.631340 -42.820347 -0.892466 -0.957000 1.218467 -24.479321 -23.995289 0.429378 -52.414879 8.214411 9.143703 8.524705 12.647240 -38.636124 -4.058817 0.661413 2.306497 10.407257 59.612751 -95.007378 35.221497 -2.889834 2.800404 -8.534408 -12.637552 37.386578 -38.007496 21.064377 3.640397 74.544106 -0.954735 -9.165689 -25.015339 0.574958 -2.017523 -5.874301 2.555207 8.483873 31.183619 5.256277 4.999146 -24.770157 -5.636005 -0.094879 
-8.176565 49.512039 -52.163181 -16.368191 -1.413747 101.191956 29.153883 -5.710859 -2.353647 -21.843082 -0.006893 0.045180 -4.480515 -20.285433 -20.853943 9.020025 46.115967 -43.156887 -0.892466 -0.957000 1.218467 -24.387053 -24.158909 0.567881 -52.267265 8.181570 9.073166 8.524705 12.647240 -38.567760 -4.058817 0.661413 2.306497 11.386101 58.879406 -83.964302 36.138618 -3.266748 3.091426 -8.534408 -12.637552 51.400246 -39.649918 21.655346 2.451123 72.831200 -1.178187 -9.061427 -25.446436 0.629910 -1.936265 -5.212595 2.791254 8.346478 30.702496 5.296042 4.946490 -24.749222 -6.417579 -0.400291 
-7.504814 49.551659 -52.701252 -16.505144 -1.779509 100.135033 29.061424 -5.446365 -2.153080 -21.901621 -0.055135 0.057339 -4.396587 -19.698805 -20.952936 8.500019 45.229477 -43.458549 -0.892466 -0.957000 1.218467 -24.512638 -24.162266 0.233258 -52.067879 8.142167 8.989596 8.524705 12.647240 -39.046280 -4.058817 0.661413 2.306497 11.089625 58.375298 -86.495239 35.809505 -3.138842 2.993574 -8.534408 -12.637552 46.878765 -40.600334 22.018700 1.550541 70.815643 -1.441850 -8.935335 -26.083141 0.109874 -2.090489 -4.467296 2.747725 8.068375 30.353003 5.319955 4.883162 -24.465759 -7.249618 -0.650428 
-6.828222 49.612152 -53.241436 -15.885017 -2.227913 99.081612 29.018673 -5.889547 -2.600155 -21.823801 0.205351 -0.013853 -3.989432 -19.994234 -20.711296 7.922948 46.397350 -43.093338 -0.892466 -0.957000 1.218467 -24.793749 -24.140497 -0.528446 -51.816742 8.095607 8.896057 8.524705 12.647240 -39.573616 -4.058817 0.661413 2.306497 10.582659 58.277359 -88.096748 35.679913 -3.083646 2.947135 -8.534408 -12.637552 44.134628 -40.783760 21.558544 1.233276 68.554176 -1.725994 -8.813070 -26.709360 0.093603 -2.025513 -3.993508 1.796592 7.488390 30.254627 5.314675 4.873110 -24.188442 -7.435122 -0.681013 
